<?xml version="1.0" encoding="utf-8"?>
<svg width="18.035334mm" height="17.500378mm" viewBox="0 0 18.035334 17.500378" version="1.1" id="svg13826" xmlns="http://www.w3.org/2000/svg">
  <g style="" transform="matrix(0.932439, 0, 0, 0.929748, 0.590609, 0.597675)">
    <g id="g70" transform="matrix(1.014889, 0, 0, 1.014889, 15.909519, -3.872907)">
      <path id="path3055" d="m -6.8492015,4.2724668 a 1.1191255,1.1099671 0 0 0 -0.4288818,0.1085303 l -5.8524037,2.7963394 a 1.1191255,1.1099671 0 0 0 -0.605524,0.7529759 l -1.443828,6.2812846 a 1.1191255,1.1099671 0 0 0 0.151943,0.851028 1.1191255,1.1099671 0 0 0 0.06362,0.08832 l 4.0508,5.036555 a 1.1191255,1.1099671 0 0 0 0.874979,0.417654 l 6.4961011,-0.0015 a 1.1191255,1.1099671 0 0 0 0.8749788,-0.416906 L 1.3818872,15.149453 A 1.1191255,1.1099671 0 0 0 1.5981986,14.210104 L 0.15212657,7.9288154 A 1.1191255,1.1099671 0 0 0 -0.45339794,7.1758396 L -6.3065496,4.3809971 A 1.1191255,1.1099671 0 0 0 -6.8492015,4.2724668 Z" style="fill: rgb(50, 108, 229); fill-opacity: 1; stroke-miterlimit: 4; stroke-dasharray: none; stroke-opacity: 1; stroke-width: 0.985329px; stroke: rgb(225, 62, 175);"/>
      <path id="path3054-2-9" d="M -6.8523435,3.8176372 A 1.1814304,1.171762 0 0 0 -7.3044284,3.932904 l -6.1787426,2.9512758 a 1.1814304,1.171762 0 0 0 -0.639206,0.794891 l -1.523915,6.6308282 a 1.1814304,1.171762 0 0 0 0.160175,0.89893 1.1814304,1.171762 0 0 0 0.06736,0.09281 l 4.276094,5.317236 a 1.1814304,1.171762 0 0 0 0.92363,0.440858 l 6.8576188,-0.0015 a 1.1814304,1.171762 0 0 0 0.9236308,-0.44011 l 4.2745966,-5.317985 a 1.1814304,1.171762 0 0 0 0.228288,-0.990993 L 0.53894439,7.6775738 A 1.1814304,1.171762 0 0 0 -0.10026101,6.8834313 L -6.2790037,3.9321555 A 1.1814304,1.171762 0 0 0 -6.8523435,3.8176372 Z m 0.00299,0.4550789 a 1.1191255,1.1099671 0 0 1 0.5426517,0.1085303 l 5.85315169,2.7948425 A 1.1191255,1.1099671 0 0 1 0.15197811,7.9290648 L 1.598051,14.21035 a 1.1191255,1.1099671 0 0 1 -0.2163123,0.939348 l -4.0493032,5.037304 a 1.1191255,1.1099671 0 0 1 -0.8749789,0.416906 l -6.4961006,0.0015 a 1.1191255,1.1099671 0 0 1 -0.874979,-0.417652 l -4.0508,-5.036554 a 1.1191255,1.1099671 0 0 1 -0.06362,-0.08832 1.1191255,1.1099671 0 0 1 -0.151942,-0.851028 l 1.443827,-6.2812853 a 1.1191255,1.1099671 0 0 1 0.605524,-0.7529758 l 5.8524036,-2.7963395 a 1.1191255,1.1099671 0 0 1 0.4288819,-0.1085303 z" style="color: rgb(0, 0, 0); font: medium Sans; text-indent: 0px; text-align: start; text-decoration: none; letter-spacing: normal; word-spacing: normal; text-transform: none; writing-mode: lr-tb; direction: ltr; baseline-shift: baseline; text-anchor: start; display: inline; overflow: visible; visibility: visible; fill: rgb(255, 255, 255); fill-opacity: 1; fill-rule: nonzero; stroke-miterlimit: 4; stroke-dasharray: none; marker: none; stroke-width: 0.985329px; stroke: rgb(225, 62, 175);"/>
    </g>
    <text id="text2066" style="fill: rgb(255, 255, 255); font-family: Arial; font-size: 2.8px; line-height: 6.61458px; stroke-width: 2px; text-anchor: middle; white-space: pre;" x="9.025" y="15.638">pod</text>
    <g id="g3341" transform="matrix(1, 0, 0, 1, -0.86496, -1.174181)">
      <path style="fill: rgb(255, 255, 255); fill-rule: evenodd; stroke-linecap: square; stroke-miterlimit: 10; stroke-width: 2px;" d="M 6.2617914,7.036086 9.8826317,5.986087 13.503462,7.036086 9.8826317,8.086087 Z" id="path910"/>
      <path style="fill: rgb(255, 255, 255); fill-rule: evenodd; stroke-linecap: square; stroke-miterlimit: 10; stroke-width: 2px;" d="m 6.2617914,7.43817 0,3.852778 3.3736103,1.868749 0.0167,-4.713193 z" id="path912"/>
      <path style="fill: rgb(255, 255, 255); fill-rule: evenodd; stroke-linecap: square; stroke-miterlimit: 10; stroke-width: 2px;" d="m 13.503462,7.43817 0,3.852778 -3.37361,1.868749 -0.0167,-4.713193 z" id="path914"/>
    </g>
  </g>
</svg>