<svg width="320" height="230" xmlns="http://www.w3.org/2000/svg" version="1.1" xml:space="preserve">
 <metadata id="metadata8">image/svg+xml</metadata>

 <g>
  <title>Layer 1</title>
  <g id="svg_1" stroke="null">
   <path d="m86.90697,45.95553c7.36133,3.06133 12.15733,6.79333 18.10133,12.98267l-8.18267,6.216c-2.17333,-2.26267 -17.9,-1.43067 -15.568,-3.24933c4.652,-3.62933 1.732,-6.80267 -2.476,-8.552c-7.93867,-4.63867 -10.404,16.44 -30.566,10.36933c-13.48387,-4.06 -19.49013,-16.64667 -15.36773,-28.46933c4.12293,-11.82533 18.336,-17.92 31.74373,-13.616c8.04467,2.58133 11.95667,8.98667 12.54467,16.08133c0.60267,7.26667 1.32533,4.72533 9.77067,8.23733" id="path46" fill-rule="evenodd" fill="#66aedd" stroke="null"/>
   <path d="m208.33763,133.77153c-2.912,-6.74133 21.67067,-23.72667 36.58933,-37.216c14.91733,-13.492 24.064,-9.13067 28.352,-3.88533c4.28533,5.24533 2.37467,17.812 -11.492,27.296c-13.86267,9.48267 -50.53866,20.548 -53.44933,13.80533" id="path48" fill-rule="evenodd" fill="#66aedd" stroke="null"/>
   <path d="m141.1963,215.97153c-53.04533,0 -96.0468,-1.54533 -96.0468,-3.45067c0,-1.908 43.00146,-3.45333 96.0468,-3.45333c53.044,0 96.04666,1.54533 96.04666,3.45333c0,1.90533 -43.00266,3.45067 -96.04666,3.45067" id="path50" fill-rule="nonzero" fill="#c2c0be" stroke="null"/>
   <path d="m105.44164,213.16353c18.90133,0 22.49467,-12.324 34.992,-12.424c12.496,-0.09867 17.92133,12.424 36.15467,12.424c29.47333,0 48.66133,-63.28533 48.66133,-97.92533c0,-44.38133 -37.63333,-74.25066 -84.05333,-74.25066c-46.42133,0 -84.05253,29.86933 -84.05253,74.25066c0,52.52 22.4272,97.92533 48.29786,97.92533" id="path52" fill-rule="evenodd" fill="#66aedd" stroke="null"/>
   <path d="m144.81363,43.09953c29.68267,0 55.33466,17.256 67.47466,42.28133c-7.39467,-0.59333 -14.97733,-0.712 -21.17733,-0.38133c-15.79467,0.84133 -26.30267,4.74533 -35.35333,7.216c-8.20267,2.24133 -23.404,1.668 -31.7,-0.72533c-8.48133,-2.448 -18.45733,-5.72933 -32.77733,-6.49067c-5.13333,-0.27467 -11.216,-0.23867 -17.35467,0.11733c9.632,-27.32 37.56666,-42.01733 70.888,-42.01733zm65.528,104.43333c-25.328,34.676 -95.06666,37.23467 -125.49333,1.41067c1.70267,0.02933 3.42133,0.01067 5.14133,-0.04533c6.15333,-0.2 12.22267,-1.504 17.36,-3.63867c6.20267,-2.584 8.55867,-5.028 11.82667,-9.668c3.12667,-4.43733 6.28133,-8.95067 8.34667,-14.796c5.10933,-14.472 21.592,-14.472 26.70133,0c2.06533,5.84533 5.86533,10.35867 8.99067,14.796c3.268,4.64 5.62533,7.084 11.828,9.668c5.136,2.13467 11.20667,3.43867 17.35867,3.63867c6.21867,0.20267 12.42533,-0.07733 17.94,-1.36533" id="path54" fill-rule="evenodd" fill="#73c1e9" stroke="null"/>
   <path d="m237.8523,110.97687c-0.90933,-2.91467 6.124,-5.13733 13.30933,-11.596c7.18667,-6.45867 12.172,-6.96 13.08133,-4.04933c0.90933,2.91467 -2.64533,7.67333 -9.51333,11.51067c-6.86533,3.83733 -15.968,7.04667 -16.87733,4.13467" id="path56" fill-rule="evenodd" fill="#ffffff" stroke="null"/>
   <path d="m142.4323,65.6982c-14.644,3.00133 -19.196,-11.12533 -0.67867,-15.596c23.19733,-5.6 56.12933,9.52133 66.008,30.34133c2.63067,5.544 -1.484,7.62267 -5.97333,2.068c-12.436,-15.38533 -34.78933,-21.84933 -59.356,-16.81333zm66.384,23.00667c1.63733,-0.27733 3.44667,1.06667 4.036,3.00133c0.592,1.936 -0.25733,3.72933 -1.89733,4.008c-1.63733,0.27867 -3.44533,-1.06533 -4.036,-3c-0.592,-1.936 0.25867,-3.732 1.89733,-4.00933" id="path58" fill-rule="evenodd" fill="#f7fcfc" stroke="null"/>
   <path d="m60.47444,24.1662c5.04173,0 9.1292,4.088 9.1292,9.12933c0,9.18533 -18.20107,9.64933 -18.20107,-1.32533c0,-5.04267 4.02973,-7.804 9.07187,-7.804" id="path60" fill-rule="evenodd" fill="#ffffff" stroke="null"/>
   <path d="m75.2963,119.68753c-3.35733,-6.53067 -32.09,1.66533 -51.9864,4.616c-19.8948,2.948 -22.3396,12.784 -21.01147,19.42533c1.32867,6.644 12.24733,13.14933 28.3792,8.46667c16.13173,-4.68 47.97733,-25.976 44.61866,-32.508" id="path62" fill-rule="evenodd" fill="#66aedd" stroke="null"/>
   <path d="m49.85671,134.86486c-0.04213,-3.11067 -5.26613,4.55333 -22.9952,6.25067c-6.32973,0.60667 -9.40733,0.03867 -9.9376,2.872c-0.22653,1.21467 0.13653,4.40533 8.97147,3.41067c8.8364,-0.99467 24.00987,-9.09067 23.96133,-12.53333l0,-0.00001zm-34.73747,7.95733c-0.16293,-1.72133 -1.9344,-3.18133 -3.95827,-3.26667c-2.02507,-0.084 -3.53387,1.24133 -3.37133,2.96133c0.1624,1.71867 1.93427,3.18267 3.95933,3.26667c2.024,0.08533 3.5328,-1.24 3.37027,-2.96133" id="path64" fill-rule="evenodd" fill="#ffffff" stroke="null"/>
   <path d="m141.24697,128.62353c11.98533,0 16.39467,-4.46667 21.59733,0.46133c5.20267,4.928 -4.66267,21.19467 -21.70133,21.19467c-17.04133,0 -26.608,-16.09867 -21.70267,-21.19467c4.90533,-5.1 9.82,-0.46133 21.80667,-0.46133" id="path66" fill-rule="evenodd" fill="#203b68" stroke="null"/>
   <path d="m152.6203,144.7462c-3.08,2.016 -6.988,3.40267 -11.50667,3.40267c-4.67733,0 -8.672,-1.47067 -11.77333,-3.588c0.26133,-3.852 6.76667,-5.92933 11.636,-3.376c5.11067,-2.55333 11.536,-0.37867 11.644,3.56133" id="path68" fill-rule="evenodd" fill="#66aedd" stroke="null"/>
   <path d="m141.2443,130.53953c8.24533,0 12.784,-1.79733 16.516,-1.79067l0.004,0.19333c0,2.90533 -2.16,5.25867 -4.82133,5.25867c-0.86267,0 -1.672,-0.24667 -2.372,-0.68c-0.88133,1.72933 -2.704,2.91467 -4.81067,2.91467c-1.86133,0 -3.50133,-0.92667 -4.46667,-2.33333c-0.964,1.40667 -2.604,2.33333 -4.46667,2.33333c-2.144,0 -3.996,-1.22933 -4.85733,-3.00933c-0.73467,0.492 -1.596,0.77467 -2.52,0.77467c-2.66267,0 -4.82133,-2.35333 -4.82133,-5.25867l0.00533,-0.252c3.728,0.07867 8.36533,1.84933 16.61067,1.84933" id="path70" fill-rule="evenodd" fill="#ffffff" stroke="null"/>
   <path d="m49.26297,103.92487c2.27613,2.78133 -0.49533,20.25733 8.26773,31.24267c6.71773,8.42133 19.5656,10.07067 32.45893,9.652c6.152,-0.2 12.22267,-1.50267 17.35867,-3.64133c6.204,-2.58267 8.55867,-5.024 11.828,-9.66533c3.12667,-4.44 4.864,-9.59333 6.92933,-15.44267c5.11067,-14.47067 25.07067,-14.47067 30.18,0c2.06533,5.84933 3.80267,11.00267 6.92933,15.44267c3.26933,4.64133 5.624,7.08267 11.82933,9.66533c5.13467,2.13867 11.20533,3.44133 17.35733,3.64133c12.89467,0.41867 25.74267,-1.23067 32.46,-9.652c8.76267,-10.98533 5.99067,-28.46133 8.26667,-31.24267c4.65867,-4.95333 3.66667,-18.56267 -4.888,-20.41067c-10.92,-2.36 -26.18267,-3.17867 -37.12933,-2.59467c-15.79333,0.84133 -26.30267,4.74533 -35.35333,7.21733c-8.20267,2.24133 -23.404,1.668 -31.69867,-0.72533c-8.484,-2.448 -18.45867,-5.72933 -32.78,-6.492c-10.94533,-0.58267 -26.20707,0.23467 -37.128,2.59467c-8.55467,1.848 -9.5468,15.45733 -4.888,20.41067" id="path72" fill-rule="evenodd" fill="#203b68" stroke="null"/>
   <path d="m75.9323,89.46887c-9.07653,1.156 -13.76253,2.22267 -16.26147,11.272c-2.238,8.09467 -0.45733,17.84267 2.20827,24.468c2.59533,6.45067 8.31147,9.88533 15.95053,11.44667c7.42667,1.51733 17.25067,1.06267 23.90667,-1.64667c7.132,-2.90267 10.75467,-6.252 14.09467,-13.472c2.40933,-5.20533 6.26133,-15.89467 4.26667,-22.984c-2.34533,-8.33333 -34.28533,-10.344 -44.16533,-9.084l-0.00001,0zm130.52666,0c9.07733,1.156 13.76267,2.22267 16.26267,11.272c2.23733,8.09333 0.45733,17.84267 -2.20933,24.468c-2.596,6.45067 -8.312,9.88533 -15.952,11.44667c-7.42533,1.51733 -17.248,1.06267 -23.904,-1.64667c-7.13333,-2.90267 -10.756,-6.252 -14.096,-13.472c-2.40933,-5.20533 -6.26,-15.89467 -4.26533,-22.984c2.344,-8.33333 34.28533,-10.344 44.164,-9.084" id="path74" fill-rule="evenodd" fill="#def1f1" stroke="null"/>
   <path d="m58.73124,111.23153c0.31507,5.092 1.57813,10.07733 3.14787,13.97733c2.5964,6.45067 8.31253,9.88533 15.95053,11.44667c7.42667,1.516 17.25067,1.06267 23.90667,-1.64667c7.13333,-2.90267 10.75467,-6.25333 14.09467,-13.472c1.7,-3.67067 4.116,-10.072 4.69333,-16.01333c-0.09067,-0.76267 -0.22933,-1.50133 -0.42667,-2.20267c-2.34533,-8.336 -34.28533,-10.344 -44.164,-9.08667c-9.07787,1.15733 -13.76387,2.224 -16.2628,11.272c-0.50933,1.84133 -0.80933,3.76933 -0.9396,5.72533l0,0.00001zm147.72773,-16.99733c9.07733,1.15733 13.76267,2.224 16.26267,11.272c0.508,1.84133 0.80933,3.768 0.93867,5.72533c-0.316,5.092 -1.57733,10.07733 -3.148,13.97733c-2.596,6.45067 -8.312,9.88533 -15.952,11.44667c-7.42533,1.516 -17.248,1.06267 -23.904,-1.64667c-7.13467,-2.90267 -10.756,-6.25333 -14.096,-13.472c-1.69867,-3.67067 -4.116,-10.072 -4.692,-16.01333c0.08933,-0.76267 0.22933,-1.50133 0.42667,-2.20267c2.344,-8.336 34.28533,-10.344 44.164,-9.08667" id="path76" fill-rule="evenodd" fill="#ffffff" stroke="null"/>
   <path d="m191.60697,90.2902c7.364,0 13.33067,5.97067 13.33067,13.332c0,7.36267 -5.96667,13.332 -13.33067,13.332c-7.36267,0 -13.33067,-5.96933 -13.33067,-13.332c0,-7.36133 5.968,-13.332 13.33067,-13.332" id="path78" fill-rule="evenodd" fill="#203b68" stroke="null"/>
   <path d="m197.64963,94.56353c2.05467,0 3.72,1.66533 3.72,3.71867c0,2.05333 -1.66533,3.71867 -3.72,3.71867c-2.05333,0 -3.71733,-1.66533 -3.71733,-3.71867c0,-2.05333 1.664,-3.71867 3.71733,-3.71867" id="path80" fill-rule="evenodd" fill="#f7fcfc" stroke="null"/>
   <path d="m109.4403,90.2902c7.36267,0 13.332,5.97067 13.332,13.332c0,7.36267 -5.96933,13.332 -13.332,13.332c-7.36267,0 -13.33067,-5.96933 -13.33067,-13.332c0,-7.36133 5.968,-13.332 13.33067,-13.332" id="path82" fill-rule="evenodd" fill="#203b68" stroke="null"/>
   <path d="m115.4843,94.56353c2.05333,0 3.71867,1.66533 3.71867,3.71867c0,2.05333 -1.66533,3.71867 -3.71867,3.71867c-2.05467,0 -3.71867,-1.66533 -3.71867,-3.71867c0,-2.05333 1.664,-3.71867 3.71867,-3.71867" id="path84" fill-rule="evenodd" fill="#f7fcfc" stroke="null"/>
   <path d="m141.23897,168.67153l-5.86533,3.82667l3.25333,3.44267c-1.00267,4.956 -2.46933,9.09467 -4.81067,13.824l6.44667,7.304l7.34933,-6.54667c-0.72,-4.60133 -2.01733,-9.97467 -3.71733,-14.62533l3.21067,-3.39867l-5.86667,-3.82667" id="path86" fill-rule="evenodd" fill="#ef2c33" stroke="null"/>
   <path d="m133.1083,177.10353l-11.88267,-15.65733c16.52933,6.21333 22.73867,5.86267 40.148,-0.012l-12.004,15.66933c-2.71067,-2.72533 -5.42,-5.448 -8.13067,-8.172c-2.71067,2.724 -5.42,5.44667 -8.13067,8.172" id="path88" fill-rule="evenodd" fill="#ffffff" stroke="null"/>
   <path d="m138.45097,176.75953c0.05867,-0.272 0.11733,-0.54667 0.176,-0.81867c1.79333,0.20133 3.552,0.196 5.268,-0.044c0.10133,0.288 0.20533,0.576 0.30667,0.86267c-1.93067,0.24933 -3.84667,0.24 -5.75067,0" id="path90" fill-rule="evenodd" fill="#d81e25" stroke="null"/>
   <path d="m268.8123,39.93287c1.41867,-0.00667 2.77333,0.27333 4.00533,0.788l12.75867,-13.59867c-0.14133,-0.34933 -0.25467,-0.716 -0.33733,-1.09733c-0.75467,-3.532 1.49467,-7.00667 5.02667,-7.76267c3.53067,-0.756 7.00533,1.49467 7.76133,5.02533c0.756,3.53333 -1.49333,7.008 -5.02533,7.76267c-1.188,0.25467 -2.36933,0.168 -3.44267,-0.192l-12.43867,13.25733c0.96667,1.32 1.62667,2.88 1.86933,4.576l17.55867,2.60133c1.556,-3.77733 5.108,-6.584 9.45867,-6.98133c6.23867,-0.57067 11.75733,4.02267 12.32667,10.26133c0.57067,6.23733 -4.024,11.75467 -10.26133,12.32667c-6.22,0.568 -11.72667,-4 -12.32133,-10.212l-17.45067,-2.58533c-0.644,1.53333 -1.652,2.87733 -2.91733,3.92267l6.05733,13.56c3.56133,0.036 6.44933,2.92133 6.472,6.49733c0.02267,3.61067 -2.888,6.55733 -6.49867,6.57867c-3.61067,0.024 -6.55733,-2.88667 -6.58,-6.49733c-0.01067,-1.66667 0.604,-3.19067 1.624,-4.352l-6.05733,-13.55867c-0.476,0.07067 -0.96533,0.11067 -1.46133,0.11333c-2.04533,0.012 -3.95467,-0.57733 -5.56,-1.60533l-9.44267,10.06533c0.728,1.12533 1.27067,2.4 1.56667,3.788c1.31067,6.12533 -2.592,12.15467 -8.71733,13.464c-6.12533,1.30933 -12.152,-2.59333 -13.46267,-8.71733c-1.31067,-6.12533 2.592,-12.152 8.71733,-13.46267c2.80667,-0.60133 5.592,-0.108 7.91333,1.19467l9.764,-10.40933c-0.52933,-1.06933 -0.87867,-2.244 -1.00533,-3.48533l-19.832,-2.93867c-1.05467,1.616 -2.812,2.75333 -4.884,2.944c-3.596,0.328 -6.77867,-2.32133 -7.108,-5.91867c-0.32933,-3.59467 2.32133,-6.77733 5.91733,-7.10667c3.172,-0.28933 6.02,1.73733 6.876,4.688l19.93733,2.95467c0.64667,-1.37733 1.58933,-2.58667 2.74933,-3.54667l-6.69067,-14.976c-0.62667,0.112 -1.27067,0.172 -1.928,0.176c-6.26267,0.04 -11.372,-5.00667 -11.412,-11.27067c-0.03867,-6.26267 5.00667,-11.372 11.26933,-11.412c6.26533,-0.03867 11.37467,5.008 11.41333,11.27067c0.02267,3.65467 -1.68667,6.91733 -4.36,9.008l6.69067,14.97733c0.47733,-0.072 0.96533,-0.112 1.46133,-0.11467" id="path92" fill-rule="evenodd" fill="#203b68" stroke="null"/>
   <path d="m255.61096,6.8022c1.40667,0.28 2.39867,1.25733 2.21467,2.18267c-0.184,0.92533 -1.47333,1.448 -2.88133,1.16667c-1.40533,-0.28 -2.39867,-1.256 -2.21333,-2.18c0.184,-0.92667 1.47333,-1.448 2.88,-1.16933" id="path94" fill-rule="evenodd" fill="#ffffff" stroke="null"/>
   <path d="m309.25896,46.06887c1.40667,0.28 2.39867,1.25733 2.21467,2.18133c-0.184,0.92533 -1.47467,1.448 -2.88133,1.168c-1.40667,-0.28 -2.39867,-1.25733 -2.21333,-2.18133c0.184,-0.92533 1.472,-1.448 2.88,-1.168" id="path96" fill-rule="evenodd" fill="#ffffff" stroke="null"/>
   <path d="m244.7203,66.61553c1.408,0.28 2.39867,1.25733 2.21467,2.18133c-0.184,0.924 -1.47333,1.448 -2.88133,1.168c-1.40533,-0.28 -2.39733,-1.256 -2.21333,-2.18267c0.184,-0.924 1.47467,-1.44667 2.88,-1.16667" id="path98" fill-rule="evenodd" fill="#ffffff" stroke="null"/>
   <path d="m269.64963,42.61687c1.40533,0.28133 2.39733,1.256 2.21467,2.18267c-0.18533,0.924 -1.476,1.44667 -2.88133,1.16667c-1.408,-0.27867 -2.39867,-1.25467 -2.216,-2.18133c0.18533,-0.924 1.47467,-1.448 2.88267,-1.168" id="path100" fill-rule="evenodd" fill="#ffffff" stroke="null"/>
   <path d="m293.48429,77.4182c-0.10667,-0.34267 0.08133,-0.70667 0.424,-0.81333c0.34133,-0.10933 0.70533,0.08 0.81333,0.42267c0.53333,1.69067 0.29733,3.824 -0.516,5.63467c-0.772,1.71333 -2.07067,3.164 -3.74133,3.72c-0.33867,0.112 -0.70533,-0.06933 -0.81867,-0.408c-0.11333,-0.33867 0.068,-0.70533 0.408,-0.82c1.30267,-0.43333 2.336,-1.612 2.96933,-3.02c0.69067,-1.54 0.89867,-3.324 0.46133,-4.716l0.00001,-0.00001zm2.85067,1.94133c-0.07333,-0.35067 0.14933,-0.69467 0.5,-0.76667c0.35067,-0.076 0.69467,0.148 0.76667,0.49867c0.40667,1.91333 0.23467,3.45067 -0.25867,4.66933c-0.64533,1.60133 -1.83067,2.63733 -2.98267,3.27867c-0.31333,0.172 -0.70667,0.06 -0.88133,-0.252c-0.17333,-0.312 -0.06,-0.70533 0.252,-0.88c0.936,-0.52 1.896,-1.35467 2.41067,-2.63067c0.404,-1 0.54,-2.28267 0.19333,-3.91733" id="path102" fill-rule="nonzero" fill="#203b68" stroke="null"/>
   <path d="m241.66963,4.5862c0.416,-0.188 0.59867,-0.67733 0.41067,-1.092c-0.188,-0.41467 -0.67733,-0.59867 -1.09067,-0.41067c-2.05333,0.93067 -3.87067,2.964 -4.89333,5.27067c-0.968,2.184 -1.23733,4.64267 -0.34667,6.69733c0.18133,0.41733 0.66533,0.608 1.08,0.428c0.41867,-0.18 0.60933,-0.664 0.42933,-1.08133c-0.69467,-1.60133 -0.456,-3.58 0.34,-5.37467c0.868,-1.95867 2.38267,-3.67067 4.07067,-4.43733zm-4.256,-1.05067c0.39333,-0.22667 0.52933,-0.73067 0.30133,-1.124c-0.22533,-0.39333 -0.72933,-0.53067 -1.124,-0.30267c-2.156,1.24 -3.46133,2.70533 -4.19867,4.20667c-0.96667,1.97067 -0.944,3.972 -0.56933,5.60667c0.1,0.44267 0.54133,0.72 0.984,0.62c0.44267,-0.10267 0.72133,-0.54267 0.62,-0.98533c-0.304,-1.328 -0.32667,-2.94533 0.44267,-4.51333c0.604,-1.22933 1.70267,-2.448 3.544,-3.508" id="path104" fill-rule="nonzero" fill="#203b68" stroke="null"/>
   <path d="m19.39897,102.8982c8.32813,0 15.08013,6.75333 15.08013,15.08133c0,8.32933 -6.752,15.07867 -15.08013,15.07867c-8.3292,0 -15.07973,-6.74933 -15.07973,-15.07867c0,-8.328 6.75053,-15.08133 15.07973,-15.08133" id="path106" fill-rule="evenodd" fill="#203b68" stroke="null"/>
   <path d="m22.88591,106.7582c2.24067,0.44533 3.81827,1.99867 3.5256,3.47067c-0.29387,1.47333 -2.3464,2.304 -4.58547,1.86c-2.24013,-0.44667 -3.81773,-2.00133 -3.52507,-3.47467c0.2928,-1.47067 2.34533,-2.30267 4.58493,-1.856" id="path108" fill-rule="evenodd" fill="#ffffff" stroke="null"/>
  </g>
  <text font-style="normal" font-weight="normal" xml:space="preserve" text-anchor="start" font-family="sans-serif" font-size="25" id="svg_2" y="167" x="79" stroke-width="0" stroke="#000" fill="#000000">Destination</text>
 </g>
</svg>